<mxfile host="Electron" agent="Mozilla/5.0 (Windows NT 10.0; Win64; x64) AppleWebKit/537.36 (KHTML, like Gecko) draw.io/25.0.1 Chrome/128.0.6613.186 Electron/32.2.6 Safari/537.36" version="25.0.1">
  <diagram id="class-diagram" name="Diagramme de Classes">
    <mxGraphModel dx="1434" dy="836" grid="1" gridSize="10" guides="1" tooltips="1" connect="1" arrows="1" fold="1" page="1" pageScale="1" pageWidth="850" pageHeight="1100" math="0" shadow="0">
      <root>
        <mxCell id="0" />
        <mxCell id="1" parent="0" />
        <mxCell id="2" value="Instance" style="swimlane;fontStyle=1;align=center;verticalAlign=top;childLayout=stackLayout;horizontal=1;startSize=26;horizontalStack=0;resizeParent=1;resizeParentMax=0;resizeLast=0;collapsible=1;marginBottom=0;" parent="1" vertex="1">
          <mxGeometry x="320" y="40" width="200" height="220" as="geometry" />
        </mxCell>
        <mxCell id="3" value="+ acidite_fixe: float&#xa;+ acide_volatile: float&#xa;+ acide_citrique: float&#xa;+ sucre_residuel: float&#xa;+ chlorure_sodium: float&#xa;+ dioxyde_soufre_libre: float&#xa;+ dioxyde_soufre_total: float&#xa;+ densite: float&#xa;+ pH: float&#xa;+ sulfate_potassium: float&#xa;+ alcool: float&#xa;+ bon: int" style="text;strokeColor=none;fillColor=none;align=left;verticalAlign=top;spacingLeft=4;spacingRight=4;overflow=hidden;rotatable=0;points=[[0,0.5],[1,0.5]];portConstraint=eastwest;" parent="2" vertex="1">
          <mxGeometry y="26" width="200" height="194" as="geometry" />
        </mxCell>
        <mxCell id="4" value="KNN" style="swimlane;fontStyle=1;align=center;verticalAlign=top;childLayout=stackLayout;horizontal=1;startSize=26;horizontalStack=0;resizeParent=1;resizeParentMax=0;resizeLast=0;collapsible=1;marginBottom=0;" parent="1" vertex="1">
          <mxGeometry x="40" y="40" width="200" height="160" as="geometry" />
        </mxCell>
        <mxCell id="5" value="- m_donnees_train: vector&lt;Instance&gt;&#xa;- m_donnees_test: vector&lt;Instance&gt;&#xa;- m_res: ResourceLoader*" style="text;strokeColor=none;fillColor=none;align=left;verticalAlign=top;spacingLeft=4;spacingRight=4;overflow=hidden;rotatable=0;points=[[0,0.5],[1,0.5]];portConstraint=eastwest;" parent="4" vertex="1">
          <mxGeometry y="26" width="200" height="54" as="geometry" />
        </mxCell>
        <mxCell id="6" value="" style="line;strokeWidth=1;fillColor=none;align=left;verticalAlign=middle;spacingTop=-1;spacingLeft=3;spacingRight=3;rotatable=0;labelPosition=right;points=[];portConstraint=eastwest;" parent="4" vertex="1">
          <mxGeometry y="80" width="200" height="8" as="geometry" />
        </mxCell>
        <mxCell id="7" value="+ KNN(string filePath)&#xa;+ classifier(Instance): int&#xa;+ tester(): map&lt;string,int&gt;" style="text;strokeColor=none;fillColor=none;align=left;verticalAlign=top;spacingLeft=4;spacingRight=4;overflow=hidden;rotatable=0;points=[[0,0.5],[1,0.5]];portConstraint=eastwest;" parent="4" vertex="1">
          <mxGeometry y="88" width="200" height="72" as="geometry" />
        </mxCell>
        <mxCell id="8" value="Liste" style="swimlane;fontStyle=1;align=center;verticalAlign=top;childLayout=stackLayout;horizontal=1;startSize=26;horizontalStack=0;resizeParent=1;resizeParentMax=0;resizeLast=0;collapsible=1;marginBottom=0;" parent="1" vertex="1">
          <mxGeometry x="600" y="40" width="200" height="120" as="geometry" />
        </mxCell>
        <mxCell id="9" value="- m_premier: Noeud*&#xa;- m_donnees: int" style="text;strokeColor=none;fillColor=none;align=left;verticalAlign=top;spacingLeft=4;spacingRight=4;overflow=hidden;rotatable=0;points=[[0,0.5],[1,0.5]];portConstraint=eastwest;" parent="8" vertex="1">
          <mxGeometry y="26" width="200" height="34" as="geometry" />
        </mxCell>
        <mxCell id="10" value="" style="line;strokeWidth=1;fillColor=none;align=left;verticalAlign=middle;spacingTop=-1;spacingLeft=3;spacingRight=3;rotatable=0;labelPosition=right;points=[];portConstraint=eastwest;" parent="8" vertex="1">
          <mxGeometry y="60" width="200" height="8" as="geometry" />
        </mxCell>
        <mxCell id="11" value="+ ajouterNoeud(Instance): void&#xa;+ obtenirDonnees(float): Noeud*&#xa;+ obtenirDonneesParFin(float): Noeud*" style="text;strokeColor=none;fillColor=none;align=left;verticalAlign=top;spacingLeft=4;spacingRight=4;overflow=hidden;rotatable=0;points=[[0,0.5],[1,0.5]];portConstraint=eastwest;" parent="8" vertex="1">
          <mxGeometry y="68" width="200" height="52" as="geometry" />
        </mxCell>
        <mxCell id="12" value="ResourceLoader" style="swimlane;fontStyle=1;align=center;verticalAlign=top;childLayout=stackLayout;horizontal=1;startSize=26;horizontalStack=0;resizeParent=1;resizeParentMax=0;resizeLast=0;collapsible=1;marginBottom=0;" parent="1" vertex="1">
          <mxGeometry x="320" y="360" width="200" height="180" as="geometry" />
        </mxCell>
        <mxCell id="13" value="- listeChaine: Liste*&#xa;- m_donnes: vector&lt;Instance&gt;" style="text;strokeColor=none;fillColor=none;align=left;verticalAlign=top;spacingLeft=4;spacingRight=4;overflow=hidden;rotatable=0;points=[[0,0.5],[1,0.5]];portConstraint=eastwest;" parent="12" vertex="1">
          <mxGeometry y="26" width="200" height="34" as="geometry" />
        </mxCell>
        <mxCell id="14" value="" style="line;strokeWidth=1;fillColor=none;align=left;verticalAlign=middle;spacingTop=-1;spacingLeft=3;spacingRight=3;rotatable=0;labelPosition=right;points=[];portConstraint=eastwest;" parent="12" vertex="1">
          <mxGeometry y="60" width="200" height="8" as="geometry" />
        </mxCell>
        <mxCell id="15" value="- ajouterFichier(string): void&#xa;+ ResourceLoader(string)&#xa;+ getTrainData(float): vector&lt;Instance&gt;&#xa;+ getTestData(float): vector&lt;Instance&gt;&#xa;+ printData(): void&#xa;+ getTrainDataLinked(float): Noeud*&#xa;+ getTestDataLinked(float): Noeud*" style="text;strokeColor=none;fillColor=none;align=left;verticalAlign=top;spacingLeft=4;spacingRight=4;overflow=hidden;rotatable=0;points=[[0,0.5],[1,0.5]];portConstraint=eastwest;" parent="12" vertex="1">
          <mxGeometry y="68" width="200" height="112" as="geometry" />
        </mxCell>
        <mxCell id="16" value="" style="endArrow=diamondThin;endFill=1;endSize=12;html=1;exitX=0;exitY=0.5;exitDx=0;exitDy=0;entryX=1;entryY=0.5;entryDx=0;entryDy=0;" parent="1" source="3" target="5" edge="1">
          <mxGeometry width="160" relative="1" as="geometry" />
        </mxCell>
        <mxCell id="17" value="" style="endArrow=diamondThin;endFill=0;endSize=12;html=1;exitX=0.5;exitY=1;exitDx=0;exitDy=0;entryX=0.5;entryY=0;entryDx=0;entryDy=0;" parent="1" source="2" target="12" edge="1">
          <mxGeometry width="160" relative="1" as="geometry" />
        </mxCell>
        <mxCell id="18" value="" style="endArrow=diamondThin;endFill=1;endSize=12;html=1;exitX=0;exitY=0.5;exitDx=0;exitDy=0;entryX=0.5;entryY=0;entryDx=0;entryDy=0;" parent="1" source="9" target="X0Np9PAsyUAjgRse0pLi-20" edge="1">
          <mxGeometry width="160" relative="1" as="geometry">
            <Array as="points">
              <mxPoint x="570" y="170" />
            </Array>
          </mxGeometry>
        </mxCell>
        <mxCell id="19" value="" style="endArrow=open;endFill=1;endSize=12;html=1;exitX=0.5;exitY=1;exitDx=0;exitDy=0;entryX=0;entryY=0.5;entryDx=0;entryDy=0;" parent="1" source="4" target="13" edge="1">
          <mxGeometry width="160" relative="1" as="geometry" />
        </mxCell>
        <mxCell id="X0Np9PAsyUAjgRse0pLi-20" value="Noeud" style="swimlane;fontStyle=1;align=center;verticalAlign=top;childLayout=stackLayout;horizontal=1;startSize=26;horizontalStack=0;resizeParent=1;resizeParentMax=0;resizeLast=0;collapsible=1;marginBottom=0;" vertex="1" parent="1">
          <mxGeometry x="570" y="230" width="200" height="220" as="geometry" />
        </mxCell>
        <mxCell id="X0Np9PAsyUAjgRse0pLi-21" value="+ donnes Instance&#xa;+ suivant Noeud* " style="text;strokeColor=none;fillColor=none;align=left;verticalAlign=top;spacingLeft=4;spacingRight=4;overflow=hidden;rotatable=0;points=[[0,0.5],[1,0.5]];portConstraint=eastwest;" vertex="1" parent="X0Np9PAsyUAjgRse0pLi-20">
          <mxGeometry y="26" width="200" height="194" as="geometry" />
        </mxCell>
        <mxCell id="X0Np9PAsyUAjgRse0pLi-22" style="edgeStyle=orthogonalEdgeStyle;rounded=0;orthogonalLoop=1;jettySize=auto;html=1;exitX=0.005;exitY=0.082;exitDx=0;exitDy=0;entryX=0.99;entryY=0.376;entryDx=0;entryDy=0;entryPerimeter=0;exitPerimeter=0;" edge="1" parent="1" source="X0Np9PAsyUAjgRse0pLi-21" target="3">
          <mxGeometry relative="1" as="geometry" />
        </mxCell>
      </root>
    </mxGraphModel>
  </diagram>
</mxfile>
